<svg width="24" height="24" viewBox="0 0 24 24" fill="none" xmlns="http://www.w3.org/2000/svg">
<path d="M19.7648 6.77221L17.3656 4.24674C17.2914 4.16839 17.2033 4.10625 17.1062 4.0639C17.0091 4.02156 16.9051 3.99984 16.8 4H7.2C7.09493 3.99989 6.99088 4.02163 6.89381 4.06397C6.79675 4.10631 6.70859 4.16842 6.6344 4.24674L4.2352 6.77221C4.16053 6.85031 4.10129 6.94321 4.06092 7.04554C4.02055 7.14788 3.99985 7.25762 4 7.36842V18.3158C4 19.2446 4.7176 20 5.6 20H18.4C19.2824 20 20 19.2446 20 18.3158V7.36842C20.0002 7.2576 19.9796 7.14783 19.9392 7.04549C19.8988 6.94314 19.8395 6.85025 19.7648 6.77221ZM7.5312 5.68421H16.4688L17.2688 6.52632H6.7312L7.5312 5.68421ZM12 17.4737L8 13.2632H10.4V10.7368H13.6V13.2632H16L12 17.4737Z" fill="#333029"/>
</svg>
