<svg width="24" height="24" viewBox="0 0 24 24" fill="none" xmlns="http://www.w3.org/2000/svg">
<path d="M19.6478 7.35231C19.4222 7.1268 19.1163 7.00012 18.7974 7.00012C18.4784 7.00012 18.1725 7.1268 17.947 7.35231L11.9927 13.3065L6.03852 7.35231C5.81166 7.13319 5.50781 7.01195 5.19242 7.01469C4.87703 7.01743 4.57533 7.14394 4.35231 7.36696C4.12929 7.58998 4.00279 7.89168 4.00005 8.20707C3.9973 8.52246 4.11855 8.8263 4.33766 9.05317L11.1423 15.8578C11.3679 16.0833 11.6738 16.21 11.9927 16.21C12.3117 16.21 12.6176 16.0833 12.8432 15.8578L19.6478 9.05317C19.8733 8.8276 20 8.5217 20 8.20274C20 7.88378 19.8733 7.57788 19.6478 7.35231V7.35231Z" fill="#333029"/>
</svg>
