<svg width="24" height="24" viewBox="0 0 24 24" fill="none" xmlns="http://www.w3.org/2000/svg">
<path d="M14.9091 7.63636L14.9091 16C14.9091 17.6073 13.6073 18.9091 12 18.9091C10.3927 18.9091 9.09091 17.6073 9.09091 16L9.09091 6.90909C9.09091 6.42688 9.28247 5.96442 9.62344 5.62344C9.96442 5.28247 10.4269 5.09091 10.9091 5.09091C11.3913 5.09091 11.8538 5.28247 12.1947 5.62344C12.5357 5.96442 12.7273 6.42688 12.7273 6.90909L12.7273 14.5455C12.7273 14.9455 12.4 15.2727 12 15.2727C11.6 15.2727 11.2727 14.9455 11.2727 14.5455L11.2727 7.63636L10.1818 7.63636L10.1818 14.5455C10.1818 15.0277 10.3734 15.4901 10.7144 15.8311C11.0553 16.1721 11.5178 16.3636 12 16.3636C12.4822 16.3636 12.9447 16.1721 13.2856 15.8311C13.6266 15.4901 13.8182 15.0277 13.8182 14.5455L13.8182 6.90909C13.8182 5.30182 12.5164 4 10.9091 4C9.30182 4 8 5.30182 8 6.90909L8 16C8 18.2109 9.78909 20 12 20C14.2109 20 16 18.2109 16 16L16 7.63636L14.9091 7.63636Z" fill="#333029"/>
</svg>
