<svg width="24" height="24" viewBox="0 0 24 24" fill="none" xmlns="http://www.w3.org/2000/svg">
<path d="M9.24085 4.08487L8.52365 4.30093C7.88504 4.49352 7.31474 4.86452 6.87987 5.37028C6.445 5.87603 6.16365 6.49549 6.06895 7.15574C5.77187 9.22433 6.43605 11.643 8.03751 14.4168C9.63496 17.1836 11.3935 18.9661 13.329 19.7463C13.9509 19.997 14.6317 20.0637 15.2905 19.9387C15.9492 19.8137 16.5582 19.5022 17.0451 19.0411L17.5872 18.527C17.9393 18.1938 18.1584 17.7441 18.2038 17.2615C18.2493 16.7789 18.1179 16.2963 17.8343 15.9032L16.4779 14.0227C16.2945 13.7688 16.0363 13.5787 15.7394 13.4789C15.4425 13.3792 15.1219 13.3749 14.8224 13.4665L12.7708 14.0937L12.7178 14.1037C12.4918 14.1367 11.9696 13.6476 11.3194 12.5213C10.6392 11.3429 10.4992 10.6537 10.6863 10.4757L11.7296 9.50241C12.1111 9.14677 12.3717 8.68062 12.4748 8.16935C12.578 7.65808 12.5185 7.12734 12.3047 6.6516L11.6425 5.18018C11.4434 4.7374 11.0901 4.38213 10.6484 4.18061C10.2067 3.97909 9.70678 3.94506 9.24185 4.08487H9.24085ZM10.7313 5.5903L11.3915 7.06172C11.52 7.34703 11.556 7.66545 11.4943 7.97225C11.4325 8.27905 11.2763 8.5588 11.0474 8.7722L10.0011 9.74648C9.33188 10.3807 9.55394 11.463 10.4542 13.0214C11.3004 14.4878 12.0727 15.212 12.9029 15.086L13.0269 15.06L15.1155 14.4228C15.2153 14.3921 15.3223 14.3935 15.4213 14.4267C15.5203 14.4599 15.6065 14.5232 15.6677 14.6079L17.0241 16.4884C17.1661 16.6849 17.2319 16.9263 17.2093 17.1677C17.1866 17.4091 17.0771 17.6341 16.901 17.8008L16.3579 18.3149C16.0101 18.644 15.5752 18.8664 15.1048 18.9556C14.6343 19.0448 14.1482 18.997 13.7041 18.818C12.0056 18.1339 10.4002 16.5064 8.90475 13.9167C7.40533 11.3209 6.79816 9.1133 7.05923 7.29778C7.12681 6.82608 7.32776 6.3835 7.63841 6.02217C7.94907 5.66083 8.3565 5.39577 8.81273 5.2582L9.52993 5.04214C9.76246 4.97227 10.0125 4.98936 10.2333 5.09022C10.4542 5.19107 10.6308 5.36882 10.7303 5.5903H10.7313Z" fill="#333029"/>
</svg>
