<svg width="24" height="24" viewBox="0 0 24 24" fill="none" xmlns="http://www.w3.org/2000/svg">
<path d="M12.4701 4C11.9662 4.00591 11.4845 4.2088 11.1281 4.56529C10.7717 4.92179 10.5689 5.4036 10.563 5.90772C10.5689 6.41184 10.7717 6.89365 11.1281 7.25015C11.4845 7.60664 11.9662 7.80953 12.4701 7.81544C12.9759 7.81544 13.461 7.61445 13.8187 7.25668C14.1763 6.89892 14.3773 6.41368 14.3773 5.90772C14.3773 5.40176 14.1763 4.91653 13.8187 4.55876C13.461 4.20099 12.9759 4 12.4701 4V4Z" fill="#333029"/>
<path d="M14.5502 7.81226C14.2888 8.10609 13.9684 8.34145 13.6099 8.50296C13.2513 8.66446 12.8628 8.74848 12.4696 8.74951C12.0719 8.74854 11.6787 8.66469 11.3152 8.50332C10.9517 8.34196 10.6257 8.1066 10.3582 7.81226C9.88968 8.32452 9.62888 8.99308 9.62671 9.68737V10.1563C9.62663 10.2179 9.63869 10.2789 9.66222 10.3359C9.68575 10.3928 9.72028 10.4445 9.76383 10.4881C9.80738 10.5316 9.85908 10.5662 9.916 10.5897C9.97291 10.6132 10.0339 10.6253 10.0955 10.6252H14.8129C14.8745 10.6253 14.9355 10.6132 14.9924 10.5897C15.0493 10.5662 15.101 10.5316 15.1445 10.4881C15.1881 10.4445 15.2226 10.3928 15.2461 10.3359C15.2697 10.2789 15.2817 10.2179 15.2817 10.1563V9.68737C15.2795 8.99308 15.0187 8.32452 14.5502 7.81226V7.81226Z" fill="#333029"/>
<path d="M8.53091 18.3877L6.14145 13.5981C6.03074 13.376 5.83652 13.2069 5.60137 13.1279C5.36622 13.0489 5.10934 13.0664 4.88705 13.1765L4.26262 13.4842C4.20699 13.5115 4.15731 13.5495 4.11646 13.596C4.0756 13.6426 4.04437 13.6968 4.02458 13.7555C4.00479 13.8142 3.99682 13.8763 4.00114 13.9381C4.00546 13.9999 4.02199 14.0602 4.04976 14.1156L6.86124 19.7409C6.91684 19.8518 7.01403 19.9362 7.13161 19.9756C7.24918 20.015 7.37758 20.0063 7.48875 19.9514L8.10396 19.6437C8.21446 19.5893 8.31316 19.5136 8.39442 19.421C8.47569 19.3285 8.53792 19.2208 8.57757 19.1041C8.61722 18.9875 8.6335 18.8642 8.6255 18.7413C8.61749 18.6183 8.58535 18.4982 8.53091 18.3877V18.3877Z" fill="#333029"/>
<path d="M19.6148 11.7407C19.4294 11.6058 19.2009 11.5439 18.9727 11.5666C18.7446 11.5893 18.5328 11.695 18.3776 11.8638L15.8159 15.014C15.6259 15.1905 15.3812 15.2965 15.1225 15.3143H12.9386C12.8173 15.3099 12.7024 15.2586 12.6181 15.1712C12.5338 15.0838 12.4868 14.9671 12.4868 14.8457C12.4868 14.7242 12.5338 14.6075 12.6181 14.5201C12.7024 14.4327 12.8173 14.3814 12.9386 14.377H14.8131C15.0617 14.377 15.3001 14.2783 15.4758 14.1024C15.6516 13.9266 15.7504 13.6881 15.7504 13.4395C15.7504 13.1908 15.6516 12.9524 15.4758 12.7765C15.3001 12.6007 15.0617 12.5019 14.8131 12.5019H12.3572C12.1234 12.5019 12.0071 12.3536 11.8232 12.1942C11.4305 11.8515 10.9614 11.608 10.4552 11.484C9.949 11.36 9.42047 11.3592 8.91389 11.4816C8.38364 11.6042 7.89031 11.8517 7.47493 12.2035L7.46078 12.1924L6.78406 12.7893L9.44789 18.1322H14.8137C15.25 18.1313 15.6802 18.0292 16.0704 17.834C16.4607 17.6389 16.8004 17.3559 17.0629 17.0072L19.8122 13.0687C19.8866 12.9689 19.9405 12.8553 19.9708 12.7346C20.0011 12.6138 20.0072 12.4883 19.9889 12.3652C19.9705 12.242 19.928 12.1238 19.8638 12.0171C19.7996 11.9105 19.715 11.8176 19.6148 11.7438V11.7407Z" fill="#333029"/>
</svg>
