<svg width="24" height="24" viewBox="0 0 24 24" fill="none" xmlns="http://www.w3.org/2000/svg">
<path d="M18.7833 19.7333V2H4.21667V19.7333H2V21H21V19.7333H18.7833ZM17.5167 19.7333H12.1333V17.2H10.8667V19.7333H5.48333V3.26667H17.5167V19.7333Z" fill="#333029"/>
<path d="M7.69995 13.4H8.96662V14.6667H7.69995V13.4Z" fill="#333029"/>
<path d="M10.8667 13.4H12.1334V14.6667H10.8667V13.4Z" fill="#333029"/>
<path d="M14.0333 13.4H15.3V14.6667H14.0333V13.4Z" fill="#333029"/>
<path d="M7.69995 9.59998H8.96662V10.8666H7.69995V9.59998Z" fill="#333029"/>
<path d="M10.8667 9.59998H12.1334V10.8666H10.8667V9.59998Z" fill="#333029"/>
<path d="M14.0333 9.59998H15.3V10.8666H14.0333V9.59998Z" fill="#333029"/>
<path d="M7.69995 5.7998H8.96662V7.06647H7.69995V5.7998Z" fill="#333029"/>
<path d="M10.8667 5.7998H12.1334V7.06647H10.8667V5.7998Z" fill="#333029"/>
<path d="M14.0333 5.7998H15.3V7.06647H14.0333V5.7998Z" fill="#333029"/>
</svg>
