<svg width="24" height="24" viewBox="0 0 24 24" fill="none" xmlns="http://www.w3.org/2000/svg">
<path d="M17.9983 11.9804C18.0168 11.2886 17.8788 10.6012 17.5937 9.96466C17.3086 9.32813 16.8831 8.7574 16.346 8.29117C16.1958 8.14839 15.9923 8.06824 15.78 8.06836C15.5678 8.06848 15.3643 8.14884 15.2143 8.29179C15.0644 8.43473 14.9802 8.62853 14.9803 8.83057C14.9804 9.0326 15.0648 9.22631 15.215 9.36909C15.6043 9.69282 15.9127 10.0953 16.1176 10.5471C16.3225 10.9989 16.4188 11.4886 16.3993 11.9804C16.4011 12.5306 16.2881 13.0757 16.0669 13.584C15.8458 14.0924 15.5209 14.5539 15.111 14.9419C14.3951 15.667 13.4131 16.1014 12.3693 16.1547L13.3664 15.2055C13.4406 15.1348 13.4995 15.0509 13.5397 14.9585C13.5799 14.8661 13.6006 14.7671 13.6006 14.6671C13.6006 14.5672 13.5799 14.4682 13.5397 14.3758C13.4995 14.2834 13.4406 14.1995 13.3664 14.1288C13.2921 14.0581 13.2039 14.002 13.1069 13.9638C13.0099 13.9255 12.9059 13.9058 12.8009 13.9058C12.6958 13.9058 12.5918 13.9255 12.4948 13.9638C12.3978 14.002 12.3096 14.0581 12.2354 14.1288L9.27002 16.948L12.2354 19.7771C12.3096 19.8478 12.3978 19.9038 12.4948 19.9421C12.5918 19.9804 12.6958 20.0001 12.8009 20.0001C12.9059 20.0001 13.0099 19.9804 13.1069 19.9421C13.2039 19.9038 13.2921 19.8478 13.3664 19.7771C13.4406 19.7064 13.4995 19.6224 13.5397 19.5301C13.5799 19.4377 13.6006 19.3387 13.6006 19.2387C13.6006 19.1387 13.5799 19.0397 13.5397 18.9474C13.4995 18.855 13.4406 18.7711 13.3664 18.7004L12.2965 17.6831C13.7896 17.6422 15.2065 17.046 16.2433 16.0223C16.8023 15.4927 17.2453 14.8627 17.5466 14.1689C17.8479 13.475 18.0014 12.7311 17.9983 11.9804V11.9804Z" fill="#333029"/>
<path d="M7.60196 11.9962C7.60034 11.446 7.71337 10.9009 7.93451 10.3926C8.15565 9.88423 8.4805 9.42269 8.89027 9.03466C9.6117 8.3039 10.6032 7.86858 11.6554 7.82061L10.6349 8.7921C10.5605 8.8628 10.5015 8.94674 10.4613 9.03914C10.421 9.13154 10.4002 9.23059 10.4002 9.33063C10.4001 9.43066 10.4208 9.52973 10.4609 9.62218C10.5011 9.71462 10.56 9.79863 10.6342 9.86941C10.7085 9.94018 10.7967 9.99634 10.8937 10.0347C10.9908 10.073 11.0949 10.0928 11.1999 10.0928C11.305 10.0929 11.4091 10.0732 11.5062 10.035C11.6033 9.99679 11.6916 9.94072 11.7659 9.87003L14.7312 7.04713L11.7672 4.22299C11.6172 4.08021 11.4138 4 11.2017 4C10.9896 4 10.7862 4.08021 10.6362 4.22299C10.4862 4.36577 10.4019 4.55941 10.4019 4.76133C10.4019 4.96325 10.4862 5.1569 10.6362 5.29968L11.6853 6.2984C10.1989 6.3432 8.7898 6.93972 7.75926 7.96045C7.20053 8.48909 6.75749 9.11797 6.45579 9.81071C6.1541 10.5034 5.99973 11.2463 6.00164 11.9962C5.98316 12.6879 6.12114 13.3754 6.40622 14.0119C6.69131 14.6484 7.11684 15.2191 7.65396 15.6854C7.80598 15.8191 8.00651 15.8916 8.21348 15.8877C8.42045 15.8838 8.61778 15.8037 8.76407 15.6643C8.91037 15.5248 8.99426 15.3369 8.99816 15.1399C9.00205 14.9428 8.92565 14.752 8.78497 14.6074C8.39572 14.2837 8.08746 13.8812 7.88276 13.4294C7.67807 12.9775 7.58213 12.4879 7.60196 11.9962V11.9962Z" fill="#333029"/>
</svg>
