<svg width="24" height="24" viewBox="0 0 24 24" fill="none" xmlns="http://www.w3.org/2000/svg">
<path d="M4.60497 8.60519C5.22992 8.60519 5.73654 8.09857 5.73654 7.47362C5.73654 6.84867 5.22992 6.34204 4.60497 6.34204C3.98001 6.34204 3.47339 6.84867 3.47339 7.47362C3.47339 8.09857 3.98001 8.60519 4.60497 8.60519Z" fill="#333029" stroke="#333029" stroke-width="0.5"/>
<path d="M4.60497 13.1313C5.22992 13.1313 5.73654 12.6247 5.73654 11.9997C5.73654 11.3748 5.22992 10.8682 4.60497 10.8682C3.98001 10.8682 3.47339 11.3748 3.47339 11.9997C3.47339 12.6247 3.98001 13.1313 4.60497 13.1313Z" fill="#333029" stroke="#333029" stroke-width="0.5"/>
<path d="M4.60497 17.6579C5.22992 17.6579 5.73654 17.1513 5.73654 16.5264C5.73654 15.9014 5.22992 15.3948 4.60497 15.3948C3.98001 15.3948 3.47339 15.9014 3.47339 16.5264C3.47339 17.1513 3.98001 17.6579 4.60497 17.6579Z" fill="#333029" stroke="#333029" stroke-width="0.5"/>
<path d="M20 7.37756C20 7.2275 19.9404 7.08359 19.8343 6.97748C19.7282 6.87138 19.5843 6.81177 19.4342 6.81177H7.88085C7.56838 6.81177 7.31506 7.06508 7.31506 7.37756V7.37756C7.31506 7.69003 7.56838 7.94334 7.88085 7.94334H19.4342C19.5843 7.94334 19.7282 7.88373 19.8343 7.77763C19.9404 7.67152 20 7.52761 20 7.37756Z" fill="#333029" stroke="#333029" stroke-width="0.5"/>
<path d="M19.4342 11.3379H7.88085C7.56838 11.3379 7.31506 11.5912 7.31506 11.9037V11.9037C7.31506 12.2162 7.56838 12.4695 7.88085 12.4695H19.4342C19.5843 12.4695 19.7282 12.4099 19.8343 12.3038C19.9404 12.1976 20 12.0537 20 11.9037C20 11.7536 19.9404 11.6097 19.8343 11.5036C19.7282 11.3975 19.5843 11.3379 19.4342 11.3379Z" fill="#333029" stroke="#333029" stroke-width="0.5"/>
<path d="M19.4342 15.8643H7.88085C7.56838 15.8643 7.31506 16.1176 7.31506 16.43V16.43C7.31506 16.7425 7.56838 16.9958 7.88085 16.9958H19.4342C19.5843 16.9958 19.7282 16.9362 19.8343 16.8301C19.9404 16.724 20 16.5801 20 16.43C20 16.28 19.9404 16.1361 19.8343 16.03C19.7282 15.9239 19.5843 15.8643 19.4342 15.8643Z" fill="#333029" stroke="#333029" stroke-width="0.5"/>
</svg>
