<svg width="24" height="24" viewBox="0 0 24 24" fill="none" xmlns="http://www.w3.org/2000/svg">
<rect x="4" y="4" width="16" height="16" rx="8" fill="#333029"/>
<path d="M10.7071 10.7071C11.0976 10.3166 11.0976 9.68333 10.7071 9.29286C10.3166 8.90238 9.68333 8.90238 9.29286 9.29286C8.90238 9.68333 8.90238 10.3166 9.29286 10.7071C9.68349 11.0977 10.3166 11.0977 10.7071 10.7071ZM14.7071 13.2929C14.3167 12.9024 13.6834 12.9024 13.2929 13.2929C12.9024 13.6834 12.9024 14.3167 13.2929 14.7071C13.6834 15.0976 14.3167 15.0976 14.7071 14.7071C15.0978 14.3167 15.0978 13.6835 14.7071 13.2929ZM14.6768 9.67677L14.3234 9.32332C14.1281 9.12801 13.8115 9.12801 13.6163 9.32332L9.32332 13.6163C9.12801 13.8117 9.12801 14.1282 9.32332 14.3234L9.67677 14.6768C9.87208 14.8721 10.1886 14.8721 10.3838 14.6768L14.6768 10.3838C14.8721 10.1886 14.8721 9.87208 14.6768 9.67677Z" fill="white"/>
</svg>
