<svg width="24" height="24" viewBox="0 0 24 24" fill="none" xmlns="http://www.w3.org/2000/svg">
<path d="M8.5384 4C8.68692 4 8.82936 4.059 8.93438 4.16402C9.0394 4.26904 9.0984 4.41148 9.0984 4.56V5.6072H15.112V4.5672C15.112 4.41868 15.171 4.27624 15.276 4.17122C15.381 4.0662 15.5235 4.0072 15.672 4.0072C15.8205 4.0072 15.963 4.0662 16.068 4.17122C16.173 4.27624 16.232 4.41868 16.232 4.5672V5.6072H18.4C18.8242 5.6072 19.2311 5.77566 19.5311 6.07555C19.8311 6.37543 19.9998 6.78219 20 7.2064V18.4008C19.9998 18.825 19.8311 19.2318 19.5311 19.5317C19.2311 19.8315 18.8242 20 18.4 20H5.6C5.17579 20 4.76895 19.8315 4.46891 19.5317C4.16888 19.2318 4.00021 18.825 4 18.4008V7.2064C4.00021 6.78219 4.16888 6.37543 4.46891 6.07555C4.76895 5.77566 5.17579 5.6072 5.6 5.6072H7.9784V4.5592C7.97861 4.41082 8.03771 4.26858 8.1427 4.16374C8.2477 4.05889 8.39002 4 8.5384 4V4ZM5.12 10.1936V18.4008C5.12 18.4638 5.13242 18.5263 5.15654 18.5845C5.18066 18.6427 5.21602 18.6956 5.26059 18.7402C5.30516 18.7848 5.35808 18.8201 5.41631 18.8443C5.47455 18.8684 5.53697 18.8808 5.6 18.8808H18.4C18.463 18.8808 18.5255 18.8684 18.5837 18.8443C18.6419 18.8201 18.6948 18.7848 18.7394 18.7402C18.784 18.6956 18.8193 18.6427 18.8435 18.5845C18.8676 18.5263 18.88 18.4638 18.88 18.4008V10.2048L5.12 10.1936ZM9.3336 15.6952V17.028H8V15.6952H9.3336ZM12.6664 15.6952V17.028H11.3336V15.6952H12.6664ZM16 15.6952V17.028H14.6664V15.6952H16ZM9.3336 12.5136V13.8464H8V12.5136H9.3336ZM12.6664 12.5136V13.8464H11.3336V12.5136H12.6664ZM16 12.5136V13.8464H14.6664V12.5136H16ZM7.9784 6.7264H5.6C5.53697 6.7264 5.47455 6.73882 5.41631 6.76294C5.35808 6.78706 5.30516 6.82242 5.26059 6.86699C5.21602 6.91156 5.18066 6.96448 5.15654 7.02271C5.13242 7.08095 5.12 7.14337 5.12 7.2064V9.0744L18.88 9.0856V7.2064C18.88 7.14337 18.8676 7.08095 18.8435 7.02271C18.8193 6.96448 18.784 6.91156 18.7394 6.86699C18.6948 6.82242 18.6419 6.78706 18.5837 6.76294C18.5255 6.73882 18.463 6.7264 18.4 6.7264H16.232V7.4696C16.232 7.61812 16.173 7.76056 16.068 7.86558C15.963 7.9706 15.8205 8.0296 15.672 8.0296C15.5235 8.0296 15.381 7.9706 15.276 7.86558C15.171 7.76056 15.112 7.61812 15.112 7.4696V6.7264H9.0984V7.4624C9.0984 7.61092 9.0394 7.75336 8.93438 7.85838C8.82936 7.9634 8.68692 8.0224 8.5384 8.0224C8.38988 8.0224 8.24744 7.9634 8.14242 7.85838C8.0374 7.75336 7.9784 7.61092 7.9784 7.4624V6.7264V6.7264Z" fill="#333029"/>
</svg>
