<svg width="24" height="24" viewBox="0 0 24 24" fill="none" xmlns="http://www.w3.org/2000/svg">
<path d="M12.2222 3C12.9601 2.99995 13.6701 3.28227 14.2064 3.78904C14.7428 4.29581 15.0649 4.98862 15.1067 5.72533L15.1111 5.88889H19.7778C19.9467 5.88894 20.1093 5.95311 20.2327 6.06842C20.3561 6.18373 20.4312 6.3416 20.4427 6.51012C20.4542 6.67863 20.4013 6.84524 20.2947 6.97627C20.1881 7.10729 20.0358 7.19298 19.8684 7.216L19.7778 7.22222H19.0702L17.9324 18.7956C17.8754 19.3725 17.6152 19.9105 17.1982 20.3133C16.7812 20.7161 16.2346 20.9576 15.656 20.9947L15.4996 21H8.94489C8.36485 21 7.80373 20.7937 7.36178 20.418C6.91984 20.0424 6.62588 19.5218 6.53244 18.9493L6.512 18.7947L5.37333 7.22222H4.66667C4.50557 7.22222 4.34992 7.16387 4.22851 7.05798C4.10709 6.9521 4.02813 6.80583 4.00622 6.64622L4 6.55556C4.00001 6.39446 4.05835 6.23881 4.16424 6.1174C4.27013 5.99598 4.4164 5.91702 4.576 5.89511L4.66667 5.88889H9.33333C9.33333 5.12271 9.6377 4.38791 10.1795 3.84614C10.7212 3.30436 11.456 3 12.2222 3V3ZM17.7307 7.22222H6.71289L7.83911 18.664C7.86405 18.9193 7.97655 19.1581 8.15753 19.3399C8.33851 19.5217 8.57681 19.6353 8.832 19.6613L8.94489 19.6667H15.4996C16.0329 19.6667 16.4853 19.2889 16.5884 18.776L16.6062 18.664L17.7298 7.22222H17.7307ZM13.7778 9.66667C13.9389 9.66667 14.0945 9.72502 14.2159 9.8309C14.3374 9.93679 14.4163 10.0831 14.4382 10.2427L14.4444 10.3333V16.5556C14.4444 16.7245 14.3802 16.8871 14.2649 17.0105C14.1496 17.1339 13.9917 17.209 13.8232 17.2205C13.6547 17.232 13.4881 17.1791 13.3571 17.0725C13.226 16.9659 13.1404 16.8136 13.1173 16.6462L13.1111 16.5556V10.3333C13.1111 10.1565 13.1813 9.98695 13.3064 9.86193C13.4314 9.7369 13.601 9.66667 13.7778 9.66667ZM10.6667 9.66667C10.8278 9.66667 10.9834 9.72502 11.1048 9.8309C11.2262 9.93679 11.3052 10.0831 11.3271 10.2427L11.3333 10.3333V16.5556C11.3333 16.7245 11.2691 16.8871 11.1538 17.0105C11.0385 17.1339 10.8806 17.209 10.7121 17.2205C10.5436 17.232 10.377 17.1791 10.246 17.0725C10.1149 16.9659 10.0292 16.8136 10.0062 16.6462L10 16.5556V10.3333C10 10.1565 10.0702 9.98695 10.1953 9.86193C10.3203 9.7369 10.4899 9.66667 10.6667 9.66667ZM12.2222 4.33333C11.8318 4.33335 11.4557 4.48015 11.1685 4.7446C10.8814 5.00906 10.7041 5.37182 10.672 5.76089L10.6667 5.88889H13.7778C13.7778 5.47633 13.6139 5.08067 13.3222 4.78895C13.0304 4.49722 12.6348 4.33333 12.2222 4.33333Z" fill="#333029"/>
</svg>
