<svg width="24" height="24" viewBox="0 0 24 24" fill="none" xmlns="http://www.w3.org/2000/svg">
<path d="M19.875 5H4.125C3.82663 5 3.54048 5.12643 3.3295 5.35147C3.11853 5.57652 3 5.88174 3 6.2V18.2C3 18.5183 3.11853 18.8235 3.3295 19.0485C3.54048 19.2736 3.82663 19.4 4.125 19.4H19.875C20.1734 19.4 20.4595 19.2736 20.6705 19.0485C20.8815 18.8235 21 18.5183 21 18.2V6.2C21 5.88174 20.8815 5.57652 20.6705 5.35147C20.4595 5.12643 20.1734 5 19.875 5V5ZM19.875 18.2H4.125V6.2H19.875V18.2Z" fill="#333029"/>
<path d="M6.9375 9.79985H17.0625C17.2117 9.79985 17.3548 9.73664 17.4602 9.62412C17.5657 9.5116 17.625 9.35898 17.625 9.19985C17.625 9.04072 17.5657 8.88811 17.4602 8.77559C17.3548 8.66307 17.2117 8.59985 17.0625 8.59985H6.9375C6.78832 8.59985 6.64524 8.66307 6.53975 8.77559C6.43426 8.88811 6.375 9.04072 6.375 9.19985C6.375 9.35898 6.43426 9.5116 6.53975 9.62412C6.64524 9.73664 6.78832 9.79985 6.9375 9.79985V9.79985Z" fill="#333029"/>
<path d="M6.9375 12.2001H17.0625C17.2117 12.2001 17.3548 12.1369 17.4602 12.0244C17.5657 11.9119 17.625 11.7593 17.625 11.6001C17.625 11.441 17.5657 11.2884 17.4602 11.1759C17.3548 11.0633 17.2117 11.0001 17.0625 11.0001H6.9375C6.78832 11.0001 6.64524 11.0633 6.53975 11.1759C6.43426 11.2884 6.375 11.441 6.375 11.6001C6.375 11.7593 6.43426 11.9119 6.53975 12.0244C6.64524 12.1369 6.78832 12.2001 6.9375 12.2001V12.2001Z" fill="#333029"/>
<path d="M6.9375 14.5997H12.5625C12.7117 14.5997 12.8548 14.5364 12.9602 14.4239C13.0657 14.3114 13.125 14.1588 13.125 13.9997C13.125 13.8405 13.0657 13.6879 12.9602 13.5754C12.8548 13.4629 12.7117 13.3997 12.5625 13.3997H6.9375C6.78832 13.3997 6.64524 13.4629 6.53975 13.5754C6.43426 13.6879 6.375 13.8405 6.375 13.9997C6.375 14.1588 6.43426 14.3114 6.53975 14.4239C6.64524 14.5364 6.78832 14.5997 6.9375 14.5997V14.5997Z" fill="#333029"/>
</svg>
