<svg width="24" height="24" viewBox="0 0 24 24" fill="none" xmlns="http://www.w3.org/2000/svg">
<path d="M9.49559 19.953C10.1982 19.953 10.7678 19.3834 10.7678 18.6808C10.7678 17.9782 10.1982 17.4086 9.49559 17.4086C8.79297 17.4086 8.22339 17.9782 8.22339 18.6808C8.22339 19.3834 8.79297 19.953 9.49559 19.953Z" fill="#333029"/>
<path d="M16.1109 19.953C16.8136 19.953 17.3831 19.3834 17.3831 18.6808C17.3831 17.9782 16.8136 17.4086 16.1109 17.4086C15.4083 17.4086 14.8387 17.9782 14.8387 18.6808C14.8387 19.3834 15.4083 19.953 16.1109 19.953Z" fill="#333029"/>
<path d="M19.8746 6.97083C19.8259 6.90763 19.7635 6.85642 19.6919 6.82112C19.6204 6.78581 19.5418 6.76736 19.462 6.76717H7.39917L7.16418 6.02042C7.13837 5.94024 7.09354 5.86749 7.03353 5.80839C6.97351 5.74928 6.90009 5.70557 6.81953 5.68099L4.6785 5.02301C4.61267 5.00278 4.54349 4.99572 4.47493 5.00222C4.40636 5.00872 4.33975 5.02867 4.2789 5.06092C4.15599 5.12604 4.06399 5.23732 4.02314 5.37028C3.98228 5.50323 3.99591 5.64698 4.06104 5.76988C4.12616 5.89278 4.23744 5.98478 4.3704 6.02564L6.24511 6.60006L8.63679 14.1563L7.7856 14.8561L7.71772 14.924C7.50721 15.1677 7.38795 15.477 7.38033 15.799C7.37271 16.121 7.47721 16.4356 7.67594 16.689C7.81827 16.8621 7.99913 16.9995 8.20406 17.0901C8.40899 17.1808 8.6323 17.2223 8.85612 17.2112H17.5717C17.7102 17.2112 17.843 17.1562 17.9409 17.0583C18.0389 16.9603 18.0939 16.8275 18.0939 16.689C18.0939 16.5505 18.0389 16.4177 17.9409 16.3198C17.843 16.2218 17.7102 16.1668 17.5717 16.1668H8.77256C8.71243 16.1648 8.65384 16.1472 8.60246 16.1159C8.55108 16.0846 8.50864 16.0406 8.47924 15.9881C8.44984 15.9356 8.43448 15.8764 8.43463 15.8162C8.43479 15.7561 8.45046 15.6969 8.48013 15.6446L9.73864 14.6002H17.7962C17.9155 14.6037 18.0324 14.5662 18.1274 14.494C18.2224 14.4218 18.2898 14.3192 18.3184 14.2033L19.9895 7.4147C20.0053 7.33685 20.0032 7.2564 19.9833 7.17948C19.9634 7.10256 19.9262 7.0312 19.8746 6.97083V6.97083Z" fill="#333029"/>
</svg>
