<svg width="24" height="24" viewBox="0 0 24 24" fill="none" xmlns="http://www.w3.org/2000/svg">
<path d="M16.4313 18.0789C16.4313 18.7951 15.8849 19.3416 15.2327 19.3416H5.74972C5.07988 19.3416 4.55119 18.7762 4.55119 18.0789V7.90232C4.55119 7.20506 5.09757 6.63966 5.74972 6.63966H10.597L12.1304 5.00013L5.74969 5C4.23382 5 3 6.30038 3 7.90229V18.0789C3 19.6996 4.23382 21 5.74969 21H15.2503C16.7662 21 18 19.6996 18 18.0789V11.238L16.4665 12.8775V18.0789L16.4313 18.0789Z" fill="#333029"/>
<path d="M16.4313 18.0789C16.4313 18.7951 15.8849 19.3416 15.2327 19.3416H5.74972C5.07988 19.3416 4.55119 18.7762 4.55119 18.0789V7.90232C4.55119 7.20506 5.09757 6.63966 5.74972 6.63966H10.597L12.1304 5.00013L5.74969 5C4.23382 5 3 6.30038 3 7.90229V18.0789C3 19.6996 4.23382 21 5.74969 21H15.2503C16.7662 21 18 19.6996 18 18.0789V11.238L16.4665 12.8775V18.0789L16.4313 18.0789Z" stroke="white"/>
<path d="M17.9788 2.50984L20.5066 5.01409L20.5299 5.03737C20.7816 5.28886 20.9176 5.63717 20.8982 6.00598L20.898 6.00597V6.01122C20.898 6.36221 20.7613 6.71229 20.5091 6.9642L11.1182 16.3446C10.8851 16.5774 10.5737 16.7139 10.2419 16.7333L10.2416 16.7333L7.52564 16.9H7.4451C7.09363 16.9 6.7431 16.7634 6.4909 16.5115C6.22004 16.2409 6.08239 15.8517 6.1018 15.4597C6.10181 15.4595 6.10182 15.4593 6.10183 15.4591L6.26911 12.7654L6.26913 12.765C6.28857 12.4336 6.42516 12.1226 6.65824 11.8898L16.07 2.48857C16.0701 2.48856 16.0701 2.48855 16.0701 2.48855C16.3228 2.23623 16.6527 2.1 17.0243 2.1C17.3721 2.1 17.7237 2.25501 17.9785 2.50955L17.9788 2.50984ZM14.6688 6.33744L14.5983 6.26701L14.5276 6.33728L9.82172 11.017L9.75058 11.0878L9.82157 11.1587L11.8503 13.1852L11.9209 13.2556L11.9915 13.1853L16.6974 8.5056L16.7686 8.43485L16.6976 8.36394L14.6688 6.33744ZM10.0026 15.1363L10.0406 15.1341L10.0675 15.1072L10.6739 14.5014L10.7448 14.4307L10.6739 14.3599L8.64515 12.3334L8.57448 12.2628L8.50381 12.3334L7.89735 12.9392L7.8704 12.9661L7.86819 13.0041L7.74272 15.156L7.73618 15.2682L7.84836 15.2616L10.0026 15.1363ZM17.8321 7.18926L17.9014 7.25855L17.9721 7.19056L19.1224 6.08345L19.1959 6.01273L19.1238 5.94065L17.095 3.91415L17.0243 3.84356L16.9536 3.91415L15.8243 5.04223L15.7535 5.11298L15.8243 5.18373L17.8321 7.18926Z" fill="#333029" stroke="white" stroke-width="0.2"/>
</svg>
