<svg width="21" height="20" viewBox="0 0 21 20" fill="none" xmlns="http://www.w3.org/2000/svg">
<path d="M6.3877 8.22266C6.3877 8.4713 6.48647 8.70975 6.66228 8.88557C6.8381 9.06138 7.07656 9.16016 7.3252 9.16016C7.57384 9.16016 7.81229 9.06138 7.98811 8.88557C8.16392 8.70975 8.2627 8.4713 8.2627 8.22266C8.2627 7.97402 8.16392 7.73556 7.98811 7.55974C7.81229 7.38393 7.57384 7.28516 7.3252 7.28516C7.07656 7.28516 6.8381 7.38393 6.66228 7.55974C6.48647 7.73556 6.3877 7.97402 6.3877 8.22266V8.22266ZM13.2627 8.22266C13.2627 8.4713 13.3615 8.70975 13.5373 8.88557C13.7131 9.06138 13.9516 9.16016 14.2002 9.16016C14.4488 9.16016 14.6873 9.06138 14.8631 8.88557C15.0389 8.70975 15.1377 8.4713 15.1377 8.22266C15.1377 7.97402 15.0389 7.73556 14.8631 7.55974C14.6873 7.38393 14.4488 7.28516 14.2002 7.28516C13.9516 7.28516 13.7131 7.38393 13.5373 7.55974C13.3615 7.73556 13.2627 7.97402 13.2627 8.22266V8.22266ZM10.7627 1.25C5.93066 1.25 2.0127 5.16797 2.0127 10C2.0127 14.832 5.93066 18.75 10.7627 18.75C15.5947 18.75 19.5127 14.832 19.5127 10C19.5127 5.16797 15.5947 1.25 10.7627 1.25ZM15.8994 15.1367C15.2314 15.8047 14.4541 16.3281 13.5889 16.6953C12.6963 17.0742 11.7451 17.2656 10.7627 17.2656C9.78027 17.2656 8.8291 17.0742 7.93457 16.6953C7.07065 16.3305 6.2859 15.8011 5.62402 15.1367C4.95605 14.4687 4.43262 13.6914 4.06543 12.8262C3.68848 11.9336 3.49707 10.9824 3.49707 10C3.49707 9.01758 3.68848 8.06641 4.06738 7.17187C4.43224 6.30795 4.9616 5.52321 5.62598 4.86133C6.29395 4.19336 7.07129 3.66992 7.93652 3.30273C8.8291 2.92578 9.78027 2.73437 10.7627 2.73437C11.7451 2.73437 12.6963 2.92578 13.5908 3.30469C14.4547 3.66955 15.2395 4.1989 15.9014 4.86328C16.5693 5.53125 17.0928 6.30859 17.46 7.17383C17.8369 8.06641 18.0283 9.01758 18.0283 10C18.0283 10.9824 17.8369 11.9336 17.458 12.8281C17.0936 13.6917 16.5642 14.4759 15.8994 15.1367V15.1367ZM13.7314 10.4102H12.792C12.71 10.4102 12.6396 10.4727 12.6338 10.5547C12.5596 11.5215 11.749 12.2852 10.7627 12.2852C9.77637 12.2852 8.96387 11.5215 8.8916 10.5547C8.88574 10.4727 8.81543 10.4102 8.7334 10.4102H7.79395C7.77275 10.4101 7.75178 10.4144 7.73229 10.4227C7.71281 10.4311 7.69522 10.4433 7.6806 10.4586C7.66599 10.474 7.65465 10.4922 7.64727 10.512C7.63989 10.5319 7.63664 10.5531 7.6377 10.5742C7.72363 12.2207 9.09277 13.5352 10.7627 13.5352C12.4326 13.5352 13.8018 12.2207 13.8877 10.5742C13.8888 10.5531 13.8855 10.5319 13.8781 10.512C13.8707 10.4922 13.8594 10.474 13.8448 10.4586C13.8302 10.4433 13.8126 10.4311 13.7931 10.4227C13.7736 10.4144 13.7526 10.4101 13.7314 10.4102V10.4102Z" fill="#333029"/>
</svg>
