<svg width="24" height="24" viewBox="0 0 24 24" fill="none" xmlns="http://www.w3.org/2000/svg">
<path d="M9.24 6.14286L11.1943 8.09143L11.5257 8.42857H18.8571V17.5714H5.14286V6.14286H9.24ZM9.24 5H5.14286C4.83975 5 4.54906 5.12041 4.33474 5.33474C4.12041 5.54906 4 5.83975 4 6.14286V17.5714C4 17.8745 4.12041 18.1652 4.33474 18.3796C4.54906 18.5939 4.83975 18.7143 5.14286 18.7143H18.8571C19.1602 18.7143 19.4509 18.5939 19.6653 18.3796C19.8796 18.1652 20 17.8745 20 17.5714V8.42857C20 8.12547 19.8796 7.83478 19.6653 7.62045C19.4509 7.40612 19.1602 7.28571 18.8571 7.28571H12L10.0514 5.33714C9.94511 5.23019 9.81867 5.14534 9.67941 5.08747C9.54015 5.02961 9.39081 4.99988 9.24 5V5Z" fill="#333029"/>
</svg>
