<svg width="24" height="24" viewBox="0 0 24 24" fill="none" xmlns="http://www.w3.org/2000/svg">
<path d="M5 7.79988C5 7.05727 5.295 6.34508 5.8201 5.81998C6.3452 5.29488 7.05739 4.99988 7.8 4.99988H16.2C16.9426 4.99988 17.6548 5.29488 18.1799 5.81998C18.705 6.34508 19 7.05727 19 7.79988V16.1999C19 16.9425 18.705 17.6547 18.1799 18.1798C17.6548 18.7049 16.9426 18.9999 16.2 18.9999H7.8C7.05739 18.9999 6.3452 18.7049 5.8201 18.1798C5.295 17.6547 5 16.9425 5 16.1999V7.79988Z" stroke="#333029" stroke-linecap="round" stroke-linejoin="round"/>
<path d="M9.54993 11.2998C10.5164 11.2998 11.2999 10.5163 11.2999 9.5498C11.2999 8.58331 10.5164 7.7998 9.54993 7.7998C8.58343 7.7998 7.79993 8.58331 7.79993 9.5498C7.79993 10.5163 8.58343 11.2998 9.54993 11.2998Z" stroke="#333029" stroke-linecap="round" stroke-linejoin="round"/>
<path d="M13.7681 12.4345L7.79993 18.9998H16.293C17.0109 18.9998 17.6995 18.7146 18.2071 18.2069C18.7147 17.6993 18.9999 17.0108 18.9999 16.2929V16.1998C18.9999 15.8736 18.8774 15.7483 18.6569 15.5068L15.8359 12.4303C15.7044 12.2868 15.5445 12.1724 15.3663 12.0942C15.1882 12.0161 14.9957 11.9759 14.8011 11.9763C14.6065 11.9767 14.4142 12.0177 14.2363 12.0965C14.0585 12.1754 13.899 12.2905 13.7681 12.4345V12.4345Z" stroke="#333029" stroke-linecap="round" stroke-linejoin="round"/>
</svg>
