<svg width="24" height="24" viewBox="0 0 24 24" fill="none" xmlns="http://www.w3.org/2000/svg">
<path d="M20.428 7.27888C20.1509 6.63724 19.7514 6.0558 19.2517 5.56709C18.7517 5.07693 18.1621 4.6874 17.5151 4.41969C16.8442 4.141 16.1246 3.99834 15.3981 4.00001C14.3789 4.00001 13.3845 4.27911 12.5203 4.80629C12.3136 4.9324 12.1172 5.07092 11.9311 5.22184C11.745 5.07092 11.5486 4.9324 11.3419 4.80629C10.4777 4.27911 9.48332 4.00001 8.4641 4.00001C7.73017 4.00001 7.01899 4.1406 6.34709 4.41969C5.69794 4.68845 5.11287 5.07505 4.61049 5.56709C4.11018 6.05524 3.71051 6.63683 3.43415 7.27888C3.14678 7.94665 3 8.65576 3 9.38554C3 10.074 3.14058 10.7914 3.41968 11.5211C3.65329 12.131 3.98821 12.7636 4.41616 13.4025C5.09426 14.4134 6.02665 15.4678 7.18438 16.5366C9.10292 18.3084 11.0028 19.5323 11.0835 19.5819L11.5734 19.8961C11.7905 20.0346 12.0696 20.0346 12.2867 19.8961L12.7767 19.5819C12.8573 19.5302 14.7551 18.3084 16.6757 16.5366C17.8335 15.4678 18.7659 14.4134 19.444 13.4025C19.8719 12.7636 20.2089 12.131 20.4404 11.5211C20.7195 10.7914 20.8601 10.074 20.8601 9.38554C20.8622 8.65576 20.7154 7.94665 20.428 7.27888V7.27888ZM11.9311 18.2608C11.9311 18.2608 4.57121 13.5451 4.57121 9.38554C4.57121 7.27888 6.31402 5.57122 8.4641 5.57122C9.97535 5.57122 11.2861 6.41472 11.9311 7.64688C12.5761 6.41472 13.8868 5.57122 15.3981 5.57122C17.5482 5.57122 19.291 7.27888 19.291 9.38554C19.291 13.5451 11.9311 18.2608 11.9311 18.2608Z" fill="#333029"/>
</svg>
