<svg width="24" height="24" viewBox="0 0 24 24" fill="none" xmlns="http://www.w3.org/2000/svg">
<path d="M12 4C10.4178 4 8.87103 4.46919 7.55544 5.34824C6.23985 6.22729 5.21447 7.47672 4.60897 8.93853C4.00347 10.4003 3.84504 12.0089 4.15372 13.5607C4.4624 15.1126 5.22433 16.538 6.34315 17.6569C7.46197 18.7757 8.88743 19.5376 10.4393 19.8463C11.9911 20.155 13.5997 19.9965 15.0615 19.391C16.5233 18.7855 17.7727 17.7602 18.6518 16.4446C19.5308 15.129 20 13.5822 20 12C19.9976 9.87901 19.1539 7.84558 17.6542 6.34582C16.1544 4.84605 14.121 4.00242 12 4V4ZM12 18.8571C10.1814 18.8571 8.43723 18.1347 7.15127 16.8487C5.86531 15.5628 5.14286 13.8186 5.14286 12C5.14286 10.1814 5.86531 8.43723 7.15127 7.15127C8.43723 5.8653 10.1814 5.14286 12 5.14286V12L16.8463 16.8463C16.2107 17.4841 15.4554 17.9901 14.6238 18.3352C13.7921 18.6803 12.9004 18.8577 12 18.8571Z" fill="#333029"/>
</svg>
