<svg width="24" height="24" viewBox="0 0 24 24" fill="none" xmlns="http://www.w3.org/2000/svg">
<path d="M4 6.09248C4 5.53752 4.22046 5.00529 4.61287 4.61287C5.00529 4.22046 5.53752 4 6.09247 4H18.6473C19.2023 4 19.7345 4.22046 20.1269 4.61287C20.5193 5.00529 20.7398 5.53752 20.7398 6.09248V14.4624C20.7398 15.0173 20.5193 15.5496 20.1269 15.942C19.7345 16.3344 19.2023 16.5549 18.6473 16.5549H8.61809C8.34064 16.5549 8.07456 16.6652 7.8784 16.8614L4.89349 19.8463C4.82039 19.9196 4.72719 19.9696 4.62569 19.9898C4.52419 20.0101 4.41895 19.9999 4.32329 19.9603C4.22763 19.9208 4.14585 19.8538 4.0883 19.7677C4.03075 19.6817 4.00002 19.5805 4 19.477V6.09248ZM9.23119 10.2774C9.23119 9.99995 9.12096 9.73383 8.92475 9.53762C8.72854 9.34142 8.46243 9.23119 8.18495 9.23119C7.90747 9.23119 7.64136 9.34142 7.44515 9.53762C7.24894 9.73383 7.13871 9.99995 7.13871 10.2774C7.13871 10.5549 7.24894 10.821 7.44515 11.0172C7.64136 11.2134 7.90747 11.3237 8.18495 11.3237C8.46243 11.3237 8.72854 11.2134 8.92475 11.0172C9.12096 10.821 9.23119 10.5549 9.23119 10.2774ZM13.4161 10.2774C13.4161 9.99995 13.3059 9.73383 13.1097 9.53762C12.9135 9.34142 12.6474 9.23119 12.3699 9.23119C12.0924 9.23119 11.8263 9.34142 11.6301 9.53762C11.4339 9.73383 11.3237 9.99995 11.3237 10.2774C11.3237 10.5549 11.4339 10.821 11.6301 11.0172C11.8263 11.2134 12.0924 11.3237 12.3699 11.3237C12.6474 11.3237 12.9135 11.2134 13.1097 11.0172C13.3059 10.821 13.4161 10.5549 13.4161 10.2774ZM16.5548 11.3237C16.8323 11.3237 17.0984 11.2134 17.2947 11.0172C17.4909 10.821 17.6011 10.5549 17.6011 10.2774C17.6011 9.99995 17.4909 9.73383 17.2947 9.53762C17.0984 9.34142 16.8323 9.23119 16.5548 9.23119C16.2774 9.23119 16.0113 9.34142 15.815 9.53762C15.6188 9.73383 15.5086 9.99995 15.5086 10.2774C15.5086 10.5549 15.6188 10.821 15.815 11.0172C16.0113 11.2134 16.2774 11.3237 16.5548 11.3237V11.3237Z" fill="#333029"/>
</svg>
