<svg width="24" height="24" viewBox="0 0 24 24" fill="none" xmlns="http://www.w3.org/2000/svg">
<path d="M17.7812 7.28125L14.7219 4.21875C14.5813 4.07812 14.3906 4 14.1906 4H14V8H18V7.80938C18 7.6125 17.9219 7.42188 17.7812 7.28125ZM13 8.25V4H6.75C6.33437 4 6 4.33437 6 4.75V19.25C6 19.6656 6.33437 20 6.75 20H17.25C17.6656 20 18 19.6656 18 19.25V9H13.75C13.3375 9 13 8.6625 13 8.25ZM8 6.25C8 6.11187 8.11187 6 8.25 6H10.75C10.8881 6 11 6.11187 11 6.25V6.75C11 6.88813 10.8881 7 10.75 7H8.25C8.11187 7 8 6.88813 8 6.75V6.25ZM8 8.75V8.25C8 8.11187 8.11187 8 8.25 8H10.75C10.8881 8 11 8.11187 11 8.25V8.75C11 8.88813 10.8881 9 10.75 9H8.25C8.11187 9 8 8.88813 8 8.75ZM12.5 16.9963V17.75C12.5 17.8881 12.3881 18 12.25 18H11.75C11.6119 18 11.5 17.8881 11.5 17.75V16.9909C11.1472 16.9728 10.8041 16.8497 10.5197 16.6362C10.3978 16.5447 10.3916 16.3622 10.5019 16.2569L10.8691 15.9066C10.9556 15.8241 11.0844 15.8203 11.1856 15.8837C11.3066 15.9594 11.4437 16 11.5862 16H12.4647C12.6678 16 12.8334 15.815 12.8334 15.5878C12.8334 15.4019 12.7206 15.2381 12.5594 15.19L11.1531 14.7681C10.5722 14.5937 10.1663 14.0363 10.1663 13.4122C10.1663 12.6459 10.7616 12.0234 11.4997 12.0037V11.25C11.4997 11.1119 11.6116 11 11.7497 11H12.2497C12.3878 11 12.4997 11.1119 12.4997 11.25V12.0091C12.8525 12.0272 13.1956 12.15 13.48 12.3638C13.6019 12.4553 13.6081 12.6378 13.4978 12.7431L13.1306 13.0934C13.0441 13.1759 12.9153 13.1797 12.8141 13.1163C12.6931 13.0403 12.5559 13 12.4134 13H11.535C11.3319 13 11.1663 13.185 11.1663 13.4122C11.1663 13.5981 11.2791 13.7619 11.4403 13.81L12.8466 14.2319C13.4275 14.4063 13.8334 14.9637 13.8334 15.5878C13.8334 16.3544 13.2381 16.9766 12.5 16.9963Z" fill="#333029"/>
</svg>
