<svg width="24" height="24" viewBox="0 0 24 24" fill="none" xmlns="http://www.w3.org/2000/svg">
<path d="M17.5641 13.3981C16.7233 13.882 15.7414 14.0612 14.784 13.9055C13.8265 13.7498 12.9519 13.2687 12.3079 12.5433L10.7749 13.4283L11.617 14.8869L10.1584 15.729L9.31633 14.2704L7.85776 15.1125L9.12092 17.3004L7.66235 18.1425L6.39919 15.9547L5.66991 16.3757L4.8278 14.9171L11.4658 11.0847C11.1596 10.1642 11.1802 9.16632 11.5241 8.25924C11.868 7.35217 12.5141 6.59142 13.3536 6.10526C15.3642 4.94442 17.9444 5.63579 19.1053 7.64642C20.2661 9.65706 19.5747 12.2373 17.5641 13.3981ZM14.1957 7.56383C12.9894 8.26025 12.5746 9.80861 13.271 11.0148C13.9674 12.2211 15.5158 12.636 16.722 11.9395C17.9282 11.2431 18.3431 9.69476 17.6467 8.48853C16.9503 7.28229 15.4019 6.86741 14.1957 7.56383Z" fill="#333029"/>
</svg>
