<svg width="24" height="24" viewBox="0 0 24 24" fill="none" xmlns="http://www.w3.org/2000/svg">
<path d="M18.44 11.04H17.08V6.56C17.08 5.146 15.934 4 14.52 4H9.56C8.146 4 7 5.146 7 6.56V11.04H5.64C5.286 11.04 5 11.326 5 11.68V19.36C5 19.714 5.286 20 5.64 20H18.44C18.794 20 19.08 19.714 19.08 19.36V11.68C19.08 11.326 18.794 11.04 18.44 11.04ZM8.44 6.56C8.44 5.942 8.942 5.44 9.56 5.44H14.52C15.138 5.44 15.64 5.942 15.64 6.56V11.04H8.44V6.56ZM17.64 18.56H6.44V12.48H17.64V18.56ZM11.48 15.78V16.84C11.48 16.928 11.552 17 11.64 17H12.44C12.528 17 12.6 16.928 12.6 16.84V15.78C12.7651 15.6615 12.8883 15.4936 12.9519 15.3006C13.0156 15.1076 13.0163 14.8993 12.954 14.7059C12.8918 14.5124 12.7697 14.3437 12.6055 14.224C12.4412 14.1043 12.2432 14.0398 12.04 14.0398C11.8368 14.0398 11.6388 14.1043 11.4745 14.224C11.3103 14.3437 11.1882 14.5124 11.126 14.7059C11.0637 14.8993 11.0644 15.1076 11.1281 15.3006C11.1917 15.4936 11.3149 15.6615 11.48 15.78V15.78Z" fill="#333029"/>
</svg>
