<svg width="223" height="44" viewBox="0 0 223 44" fill="none" xmlns="http://www.w3.org/2000/svg">
<path d="M24.0734 0.268311L12.0876 21.8829H0.0151367L24.0734 0.268311Z" fill="#FBB814"/>
<path d="M24.0732 0.268311V21.8829H12.0874L24.0732 0.268311Z" fill="#FBD46F"/>
<path d="M48.1192 21.8829H36.418L24.0732 0.268311L48.1192 21.8829Z" fill="#FBD46F"/>
<path d="M20.2988 21.8828L14.507 27.6997H19.9337L10.6396 37.0342H15.002L8.27588 43.7895L23.0091 36.2822H17.4029L29.5249 27.0161H23.6898L29.0732 21.8828H20.2988Z" fill="#FDD42F"/>
<path d="M36.418 21.8829H24.0732V0.268311L36.418 21.8829Z" fill="#FBB814"/>
<path d="M60.0141 12.9536L61.3308 26.8088C61.4056 27.5752 61.7198 27.996 62.4081 27.996C63.0066 27.996 63.3806 27.6804 63.5003 27.0192L65.5951 16.1244C66.0439 13.8403 67.3457 12.623 69.6499 12.623C71.9541 12.623 73.181 13.8403 73.6 16.1244L75.56 27.0192C75.6648 27.6504 76.0538 27.996 76.6822 27.996C77.3555 27.996 77.6847 27.5752 77.7595 26.8088L79.2558 12.9536H82.4727L80.8268 27.0042C80.5575 29.3485 79.4652 31.0315 76.6822 31.0315C74.4528 31.0315 73.0613 29.9345 72.6274 27.425L70.6823 16.5903C70.5776 15.9591 70.1885 15.6435 69.605 15.6435C69.0215 15.6435 68.6624 15.9591 68.5277 16.5903L66.4629 27.425C65.9841 29.8444 64.6524 31.0315 62.3033 31.0315C59.5802 31.0315 58.5328 29.4086 58.2635 27.0042L56.7373 12.9536H60.0141Z" fill="#161616"/>
<path d="M86.4524 30.7159H83.041L89.2504 14.9372C89.9088 13.2842 91.1058 12.6531 92.9761 12.6531C94.8015 12.6531 96.0134 13.2842 96.6419 14.9372L102.612 30.7159H99.1855L93.814 16.44C93.6643 16.0192 93.3651 15.8389 92.9461 15.8389C92.5272 15.8389 92.2429 16.0192 92.0484 16.44L86.4524 30.7159Z" fill="#161616"/>
<path d="M115.465 12.9536V16.0643H110.303V30.7159H107.191V16.0643H102.029V12.9536H115.465Z" fill="#161616"/>
<path d="M130.936 12.9536V16.0643H125.774V30.7159H122.662V16.0643H117.5V12.9536H130.936Z" fill="#161616"/>
<path d="M136.621 30.7159H133.554V16.6203C133.554 14.246 134.946 12.6531 137.804 12.6531C140.317 12.6531 141.754 13.9154 142.262 16.1544L144.746 27.0192C144.896 27.6503 145.27 28.026 145.928 28.026C146.586 28.026 146.946 27.6503 147.11 27.0192L149.594 16.1544C150.088 13.9154 151.404 12.6531 153.933 12.6531C156.791 12.6531 158.182 14.261 158.182 16.6203V30.7159H155.115V16.7706C155.115 16.0943 154.666 15.6435 153.858 15.6435C153.125 15.6435 152.751 16.0042 152.631 16.5902L150.088 27.455C149.534 29.7993 148.337 31.0315 145.898 31.0315C143.429 31.0315 142.158 29.7391 141.634 27.455L139.12 16.5902C138.986 16.0042 138.597 15.6435 137.893 15.6435C137.085 15.6435 136.636 16.0943 136.636 16.7706V30.7159H136.621Z" fill="#161616"/>
<path d="M172.187 12.9536C177.32 12.9536 180.177 15.899 180.177 21.8648C180.177 27.8157 177.349 30.7009 172.187 30.7009H169.779C164.616 30.7009 161.789 27.8157 161.789 21.8648C161.789 15.899 164.646 12.9536 169.779 12.9536H172.187ZM169.779 16.0643C166.367 16.0643 164.886 17.7924 164.886 21.8799C164.886 25.9372 166.352 27.6203 169.779 27.6203H172.187C175.599 27.6203 177.065 25.9372 177.065 21.8648C177.065 17.8074 175.599 16.0793 172.187 16.0793H169.779V16.0643Z" fill="#161616"/>
<path d="M186.865 30.7159H183.768V16.5151C183.768 14.2009 185.085 12.6531 187.823 12.6531C190.292 12.6531 191.384 13.9154 192.117 15.9441L197.279 27.2747C197.489 27.6954 197.833 28.011 198.401 28.011C199.06 28.011 199.449 27.6203 199.449 27.0042V12.9536H202.561V27.1244C202.561 29.4686 201.229 31.0165 198.506 31.0165C196.037 31.0165 194.915 29.7542 194.182 27.7255L189.02 16.3949C188.78 15.8689 188.466 15.6285 187.928 15.6285C187.224 15.6285 186.85 16.0192 186.85 16.6503V30.7159H186.865Z" fill="#161616"/>
<path d="M209.908 12.9536V20.4823H211.613C214.651 20.4823 215.145 20.2118 216.147 18.2733L218.84 12.9536H222.162L219.379 18.4837C218.601 20.0615 217.763 21.0834 216.312 21.7145C217.958 22.1654 218.78 23.082 219.828 25.1408L222.686 30.7159H219.229L216.536 25.4563C215.564 23.5629 214.935 23.3074 211.613 23.3074H209.908V30.7309H206.811V12.9536H209.908Z" fill="#161616"/>
</svg>
