<svg width="24" height="24" viewBox="0 0 24 24" fill="none" xmlns="http://www.w3.org/2000/svg">
<rect x="6.5" y="4.5" width="11" height="15" rx="1.5" stroke="#333029"/>
<path d="M13.9078 12.9251C14.1758 13.1922 14.3893 13.5089 14.5365 13.8576L13.9078 12.9251ZM13.9078 12.9251C13.6775 12.6943 13.4106 12.5037 13.1182 12.3611C13.537 12.0003 13.8021 11.4656 13.8021 10.8693C13.8021 9.78148 12.9209 8.9 11.8333 8.9C10.7457 8.9 9.86455 9.78148 9.86455 10.8693C9.86455 11.4656 10.1297 12.0003 10.5484 12.3616C10.2559 12.5039 9.99082 12.6932 9.75893 12.9258C9.49117 13.1931 9.27767 13.5097 9.13024 13.8582C8.98538 14.1995 8.90724 14.5653 8.90004 14.936M13.9078 12.9251L14.6063 15.1L14.6064 15.0008V15.1C14.6277 15.1 14.6489 15.0957 14.6686 15.0874C14.6883 15.0791 14.7062 15.0669 14.7211 15.0516C14.7361 15.0363 14.7478 15.0182 14.7556 14.9983C14.7634 14.9785 14.7671 14.9573 14.7666 14.9361M8.90004 14.936C8.90005 14.9359 8.90005 14.9358 8.90005 14.9357L9.00002 14.9382L8.90004 14.9363C8.90004 14.9362 8.90004 14.9361 8.90004 14.936ZM8.90004 14.936C8.89955 14.9573 8.9033 14.9784 8.91108 14.9983C8.91889 15.0182 8.93061 15.0363 8.94554 15.0516C8.96048 15.0669 8.97833 15.0791 8.99805 15.0874C9.01775 15.0957 9.03892 15.1 9.0603 15.1C9.06031 15.1 9.06032 15.1 9.06033 15.1H9.51243C9.60037 15.1 9.67054 15.0298 9.67268 14.9438C9.68708 14.3875 9.91021 13.8669 10.305 13.472C10.7136 13.0633 11.2555 12.8387 11.8333 12.8387C12.4111 12.8387 12.9531 13.0633 13.3616 13.472C13.7564 13.8669 13.9795 14.3874 13.994 14.9436C13.994 14.9437 13.994 14.9437 13.994 14.9438L14.094 14.9412C14.0947 14.9744 14.1211 15 14.1542 15H14.6064C14.6144 15 14.6224 14.9984 14.6298 14.9953C14.6372 14.9921 14.6439 14.9876 14.6495 14.9818C14.6552 14.976 14.6596 14.9692 14.6625 14.9617C14.6654 14.9542 14.6668 14.9462 14.6666 14.9382M14.6666 14.9382L14.7666 14.9361M14.6666 14.9382L14.7666 14.9357C14.7666 14.9358 14.7666 14.936 14.7666 14.9361M14.6666 14.9382L14.7666 14.9361M14.7666 14.9361C14.7588 14.5632 14.6816 14.2002 14.5365 13.8576L14.7666 14.9361ZM11.8333 12.0658C11.514 12.0658 11.2139 11.9415 10.9877 11.7152C10.7616 11.489 10.6372 11.1888 10.6372 10.8693C10.6372 10.5499 10.7616 10.2497 10.9877 10.0235C11.2139 9.79723 11.514 9.67286 11.8333 9.67286C12.1526 9.67286 12.4527 9.79723 12.6789 10.0235C12.9051 10.2497 13.0294 10.5499 13.0294 10.8693C13.0294 11.1888 12.9051 11.489 12.6789 11.7152C12.4527 11.9415 12.1526 12.0658 11.8333 12.0658Z" fill="#333029" stroke="#333029" stroke-width="0.2"/>
</svg>
