<svg width="24" height="24" viewBox="0 0 24 24" fill="none" xmlns="http://www.w3.org/2000/svg">
<path d="M18.4 4H5.6C4.712 4 4 4.712 4 5.6V18.4C4 19.288 4.712 20 5.6 20H18.4C19.288 20 20 19.288 20 18.4V5.6C20 4.712 19.288 4 18.4 4ZM18.4 18.4H5.6V5.6H18.4V18.4ZM9.464 10.6L8.232 9.368L7.2 10.4V7.2H10.4L9.368 8.232L10.6 9.464L9.464 10.6ZM13.4 9.464L14.632 8.232L13.6 7.2H16.8V10.4L15.768 9.368L14.536 10.6L13.4 9.464ZM14.536 13.4L15.768 14.632L16.8 13.6V16.8H13.6L14.632 15.768L13.4 14.536L14.536 13.4ZM10.6 14.536L9.368 15.768L10.4 16.8H7.2V13.6L8.232 14.632L9.464 13.4" fill="#333029"/>
</svg>
