<svg width="24" height="24" viewBox="0 0 24 24" fill="none" xmlns="http://www.w3.org/2000/svg">
<path d="M13 10L12.295 10.705L13.585 12H9V13H13.585L12.295 14.295L13 15L15.5 12.5L13 10Z" fill="#333029"/>
<path d="M9.11467 5.33333L11.3907 7.60933L11.7813 8H20.3333V18.6667H4.33333V5.33333H9.11467ZM9.11467 4H4.33333C3.97971 4 3.64057 4.14048 3.39052 4.39052C3.14048 4.64057 3 4.97971 3 5.33333V18.6667C3 19.0203 3.14048 19.3594 3.39052 19.6095C3.64057 19.8595 3.97971 20 4.33333 20H20.3333C20.687 20 21.0261 19.8595 21.2761 19.6095C21.5262 19.3594 21.6667 19.0203 21.6667 18.6667V8C21.6667 7.64638 21.5262 7.30724 21.2761 7.05719C21.0261 6.80714 20.687 6.66667 20.3333 6.66667H12.3333L10.0573 4.39067C9.80734 4.1406 9.46826 4.00008 9.11467 4Z" fill="#333029"/>
</svg>
