<svg width="24" height="24" viewBox="0 0 24 24" fill="none" xmlns="http://www.w3.org/2000/svg">
<path d="M7.36842 16.8892C9.22611 16.8892 10.7368 15.494 10.7368 13.7783V5.88824L18.3158 8.43296V14.2115C17.8062 13.9311 17.2247 13.7815 16.6316 13.7783C14.7739 13.7783 13.2632 15.1735 13.2632 16.8892C13.2632 18.6049 14.7739 20.0001 16.6316 20.0001C18.4893 20.0001 20 18.6049 20 16.8892V7.88855C20.0001 7.72899 19.947 7.57326 19.8478 7.44259C19.7487 7.31191 19.6083 7.21263 19.4459 7.15827L10.1827 4.04735C10.0556 4.00442 9.91907 3.99047 9.78482 4.00668C9.65057 4.02289 9.52253 4.06879 9.4116 4.14048C9.30066 4.21217 9.2101 4.30753 9.14761 4.41845C9.08511 4.52938 9.05253 4.6526 9.05263 4.77764V11.1006C8.54305 10.8202 7.96159 10.6706 7.36842 10.6674C5.51074 10.6674 4 12.0626 4 13.7783C4 15.494 5.51074 16.8892 7.36842 16.8892Z" fill="#333029"/>
</svg>
