<svg xmlns="http://www.w3.org/2000/svg" width="26.612" height="29.569" viewBox="0 0 26.612 29.569">
  <g id="Notification" transform="translate(-1475.4 -58.431)">
    <path id="bxs-bell" d="M17.806,32.569a4.406,4.406,0,0,0,4.166-2.957H13.64A4.406,4.406,0,0,0,17.806,32.569ZM28.155,21.608v-6.78A10.359,10.359,0,0,0,20.549,4.86a2.952,2.952,0,0,0-5.485,0,10.359,10.359,0,0,0-7.607,9.968v6.78L4.933,24.132A1.473,1.473,0,0,0,4.5,25.177v1.478a1.478,1.478,0,0,0,1.478,1.478H29.634a1.478,1.478,0,0,0,1.478-1.478V25.177a1.473,1.473,0,0,0-.434-1.045Z" transform="translate(1470.9 55.431)" fill="#333"/>
  </g>
</svg>