<svg width="32" height="32" viewBox="0 0 32 32" fill="none" xmlns="http://www.w3.org/2000/svg">
<rect x="5.33331" y="5.33301" width="21.3333" height="21.3333" rx="10.6667" fill="#4C483D"/>
<path d="M16.1733 15.5111C15.1644 15.2489 14.84 14.9778 14.84 14.5556C14.84 14.0711 15.2888 13.7333 16.04 13.7333C16.8311 13.7333 17.1244 14.1111 17.1511 14.6667H18.1333C18.1022 13.9022 17.6355 13.2 16.7066 12.9733V12H15.3733V12.96C14.5111 13.1467 13.8177 13.7067 13.8177 14.5644C13.8177 15.5911 14.6666 16.1022 15.9066 16.4C17.0177 16.6667 17.24 17.0578 17.24 17.4711C17.24 17.7778 17.0222 18.2667 16.04 18.2667C15.1244 18.2667 14.7644 17.8578 14.7155 17.3333H13.7377C13.7911 18.3067 14.52 18.8533 15.3733 19.0356V20H16.7066V19.0444C17.5733 18.88 18.2622 18.3778 18.2622 17.4667C18.2622 16.2044 17.1822 15.7733 16.1733 15.5111Z" fill="white"/>
</svg>
