<svg width="24" height="24" viewBox="0 0 24 24" fill="none" xmlns="http://www.w3.org/2000/svg">
<path d="M12 4C11.3038 4 10.6361 4.28095 10.1438 4.78105C9.65156 5.28115 9.375 5.95942 9.375 6.66667C9.375 9.33333 13.75 12.8889 6.75 12.8889C6.28587 12.8889 5.84075 13.0762 5.51256 13.4096C5.18437 13.743 5 14.1952 5 14.6667V16.4444H19V14.6667C19 14.1952 18.8156 13.743 18.4874 13.4096C18.1592 13.0762 17.7141 12.8889 17.25 12.8889C10.25 12.8889 14.625 9.33333 14.625 6.66667C14.625 4.88889 13.4525 4 12 4ZM6.75 18.2222V20H17.25V18.2222H6.75Z" fill="#333029"/>
</svg>
