<svg width="24" height="24" viewBox="0 0 24 24" fill="none" xmlns="http://www.w3.org/2000/svg">
<path d="M10.5156 2.47195C10.603 2.4249 10.7008 2.40027 10.8 2.40027C10.8993 2.40027 10.997 2.4249 11.0844 2.47195L17.9376 6.16195C18.3191 6.36729 18.6378 6.67203 18.8601 7.04387C19.0823 7.4157 19.1998 7.84076 19.2 8.27395V15C19.2 15.7956 18.884 16.5587 18.3213 17.1213C17.7587 17.6839 16.9957 18 16.2 18H5.40002C4.60437 18 3.84131 17.6839 3.2787 17.1213C2.71609 16.5587 2.40002 15.7956 2.40002 15V8.27515C2.40004 7.84176 2.5174 7.41645 2.73967 7.04438C2.96194 6.67232 3.28081 6.36738 3.66242 6.16195L10.5156 2.47195ZM10.8 3.68155L4.23122 7.21795C4.08549 7.29649 3.95761 7.40435 3.85562 7.53475L10.8 10.7388L17.7444 7.53475C17.6424 7.40438 17.5145 7.29652 17.3688 7.21795L10.8 3.68155ZM18 8.73715L11.052 11.9448C10.973 11.9813 10.8871 12.0002 10.8 12.0002C10.713 12.0002 10.627 11.9813 10.548 11.9448L3.60002 8.73715V15C3.60002 15.4773 3.78967 15.9352 4.12723 16.2727C4.4648 16.6103 4.92263 16.8 5.40002 16.8H16.2C16.6774 16.8 17.1353 16.6103 17.4728 16.2727C17.8104 15.9352 18 15.4773 18 15V8.73715V8.73715ZM7.80002 20.4C7.33422 20.4003 6.87475 20.2921 6.45813 20.0837C6.0415 19.8754 5.67921 19.5728 5.40002 19.2H16.2C17.3139 19.2 18.3822 18.7575 19.1699 17.9698C19.9575 17.1821 20.4 16.1139 20.4 15V7.79995C21.1284 8.34715 21.6 9.21835 21.6 10.2V15C21.6 16.4321 21.0311 17.8056 20.0184 18.8183C19.0057 19.831 17.6322 20.4 16.2 20.4H7.80002Z" fill="#333029"/>
</svg>
