<svg width="21" height="20" viewBox="0 0 21 20" fill="none" xmlns="http://www.w3.org/2000/svg">
<path d="M3.24171 2.05072L18.5967 9.61672C18.6804 9.65799 18.751 9.72186 18.8003 9.80113C18.8496 9.88039 18.8757 9.97188 18.8757 10.0652C18.8757 10.1586 18.8496 10.2501 18.8003 10.3293C18.751 10.4086 18.6804 10.4725 18.5967 10.5137L3.24071 18.0797C3.15468 18.122 3.05832 18.1386 2.9631 18.1277C2.86788 18.1167 2.77782 18.0786 2.70364 18.0179C2.62945 17.9572 2.57428 17.8765 2.54468 17.7853C2.51509 17.6942 2.51232 17.5964 2.53671 17.5037L4.50571 10.0697L2.53571 2.62772C2.51092 2.53484 2.51343 2.43677 2.54294 2.34528C2.57246 2.25378 2.62772 2.17274 2.70212 2.11185C2.77652 2.05096 2.86689 2.01281 2.96241 2.00197C3.05794 1.99113 3.15456 2.00805 3.24071 2.05072H3.24171ZM3.78471 3.43372L5.39471 9.51572L5.45671 9.50372L5.52071 9.49972H12.5207C12.6457 9.49949 12.7662 9.54605 12.8585 9.63023C12.9508 9.71441 13.0083 9.83011 13.0196 9.95455C13.0309 10.079 12.9952 10.2031 12.9195 10.3026C12.8438 10.402 12.7337 10.4695 12.6107 10.4917L12.5207 10.4997H5.52071C5.48986 10.4999 5.45907 10.4972 5.42871 10.4917L3.78571 16.6977L17.2437 10.0657L3.78471 3.43372V3.43372Z" fill="#333029"/>
</svg>
