<svg width="24" height="24" viewBox="0 0 24 24" fill="none" xmlns="http://www.w3.org/2000/svg">
<path d="M7.3109 17.5865C7.3109 17.7329 7.25277 17.8732 7.14931 17.9767C7.04584 18.0801 6.90552 18.1382 6.7592 18.1382C6.61288 18.1382 6.47255 18.0801 6.36909 17.9767C6.26562 17.8732 6.2075 17.7329 6.2075 17.5865V7.88434L4.943 9.14994C4.89171 9.20124 4.83081 9.24193 4.76379 9.26969C4.69677 9.29745 4.62494 9.31174 4.5524 9.31174C4.47986 9.31174 4.40802 9.29745 4.341 9.26969C4.27398 9.24193 4.21309 9.20124 4.16179 9.14994C4.1105 9.09865 4.06981 9.03775 4.04205 8.97073C4.01429 8.90371 4 8.83188 4 8.75934C4 8.6868 4.01429 8.61497 4.04205 8.54795C4.06981 8.48093 4.1105 8.42003 4.16179 8.36874L6.36859 6.16304L6.37632 6.15532C6.48004 6.05458 6.61928 5.99878 6.76387 6.00002C6.90845 6.00126 7.04672 6.05944 7.1487 6.16194L9.3555 8.36874C9.40679 8.41996 9.4475 8.48078 9.47529 8.54774C9.50307 8.61469 9.5174 8.68646 9.51745 8.75895C9.5175 8.83144 9.50328 8.90323 9.47558 8.97022C9.44789 9.03722 9.40727 9.0981 9.35605 9.14939C9.30483 9.20069 9.244 9.24139 9.17705 9.26918C9.1101 9.29697 9.03833 9.3113 8.96584 9.31135C8.89335 9.3114 8.82156 9.29717 8.75456 9.26948C8.68757 9.24178 8.62669 9.20117 8.57539 9.14994L7.3109 7.88434V17.5865ZM11.1728 7.65594C11.1728 7.50962 11.2309 7.36929 11.3344 7.26583C11.4379 7.16236 11.5782 7.10424 11.7245 7.10424H19.4483C19.5946 7.10424 19.7349 7.16236 19.8384 7.26583C19.9419 7.36929 20 7.50962 20 7.65594C20 7.80226 19.9419 7.94259 19.8384 8.04605C19.7349 8.14951 19.5946 8.20764 19.4483 8.20764H11.7245C11.5782 8.20764 11.4379 8.14951 11.3344 8.04605C11.2309 7.94259 11.1728 7.80226 11.1728 7.65594ZM11.7245 10.4144C11.5782 10.4144 11.4379 10.4726 11.3344 10.576C11.2309 10.6795 11.1728 10.8198 11.1728 10.9661C11.1728 11.1125 11.2309 11.2528 11.3344 11.3563C11.4379 11.4597 11.5782 11.5178 11.7245 11.5178H17.2415C17.3878 11.5178 17.5281 11.4597 17.6316 11.3563C17.7351 11.2528 17.7932 11.1125 17.7932 10.9661C17.7932 10.8198 17.7351 10.6795 17.6316 10.576C17.5281 10.4726 17.3878 10.4144 17.2415 10.4144H11.7245ZM11.7245 13.7246C11.5782 13.7246 11.4379 13.7828 11.3344 13.8862C11.2309 13.9897 11.1728 14.13 11.1728 14.2763C11.1728 14.4227 11.2309 14.563 11.3344 14.6665C11.4379 14.7699 11.5782 14.828 11.7245 14.828H15.0347C15.181 14.828 15.3213 14.7699 15.4248 14.6665C15.5283 14.563 15.5864 14.4227 15.5864 14.2763C15.5864 14.13 15.5283 13.9897 15.4248 13.8862C15.3213 13.7828 15.181 13.7246 15.0347 13.7246H11.7245ZM11.7245 17.0348C11.5782 17.0348 11.4379 17.093 11.3344 17.1964C11.2309 17.2999 11.1728 17.4402 11.1728 17.5865C11.1728 17.7329 11.2309 17.8732 11.3344 17.9767C11.4379 18.0801 11.5782 18.1382 11.7245 18.1382H12.8279C12.9742 18.1382 13.1145 18.0801 13.218 17.9767C13.3215 17.8732 13.3796 17.7329 13.3796 17.5865C13.3796 17.4402 13.3215 17.2999 13.218 17.1964C13.1145 17.093 12.9742 17.0348 12.8279 17.0348H11.7245Z" fill="#333029"/>
</svg>
