<svg width="24" height="24" viewBox="0 0 24 24" fill="none" xmlns="http://www.w3.org/2000/svg">
<path d="M14.4615 7.46154C14.4615 8.11438 14.2022 8.74048 13.7406 9.20211C13.2789 9.66374 12.6528 9.92308 12 9.92308C11.3472 9.92308 10.7211 9.66374 10.2594 9.20211C9.7978 8.74048 9.53846 8.11438 9.53846 7.46154C9.53846 6.8087 9.7978 6.1826 10.2594 5.72097C10.7211 5.25934 11.3472 5 12 5C12.6528 5 13.2789 5.25934 13.7406 5.72097C14.2022 6.1826 14.4615 6.8087 14.4615 7.46154V7.46154ZM6.46154 9.92308C6.95117 9.92308 7.42075 9.72857 7.76697 9.38235C8.11319 9.03613 8.30769 8.56655 8.30769 8.07692C8.30769 7.58729 8.11319 7.11772 7.76697 6.7715C7.42075 6.42527 6.95117 6.23077 6.46154 6.23077C5.97191 6.23077 5.50233 6.42527 5.15611 6.7715C4.80989 7.11772 4.61538 7.58729 4.61538 8.07692C4.61538 8.56655 4.80989 9.03613 5.15611 9.38235C5.50233 9.72857 5.97191 9.92308 6.46154 9.92308V9.92308ZM17.5385 9.92308C18.0281 9.92308 18.4977 9.72857 18.8439 9.38235C19.1901 9.03613 19.3846 8.56655 19.3846 8.07692C19.3846 7.58729 19.1901 7.11772 18.8439 6.7715C18.4977 6.42527 18.0281 6.23077 17.5385 6.23077C17.0488 6.23077 16.5793 6.42527 16.233 6.7715C15.8868 7.11772 15.6923 7.58729 15.6923 8.07692C15.6923 8.56655 15.8868 9.03613 16.233 9.38235C16.5793 9.72857 17.0488 9.92308 17.5385 9.92308V9.92308ZM8.44431 11.7846C8.54488 11.5942 8.69551 11.4348 8.87996 11.3236C9.06442 11.2125 9.27572 11.1538 9.49108 11.1538H14.5089C14.8228 11.1538 15.1238 11.2785 15.3457 11.5005C15.5676 11.7224 15.6923 12.0234 15.6923 12.3372V16.0769C15.6891 16.9817 15.3539 17.8538 14.7504 18.5279C14.1468 19.2019 13.3169 19.6311 12.418 19.7339C11.5191 19.8367 10.6137 19.6061 9.87354 19.0857C9.13339 18.5653 8.60994 17.7914 8.40246 16.9108C8.33939 16.6373 8.30759 16.3576 8.30769 16.0769V12.3372C8.30769 12.1378 8.35692 11.9495 8.44431 11.7846ZM7.38462 12.3372C7.38462 12.1403 7.41169 11.9495 7.46215 11.7692H4.61538C4.45217 11.7692 4.29565 11.8341 4.18024 11.9495C4.06484 12.0649 4 12.2214 4 12.3846V15.4615C3.99991 15.8894 4.11135 16.3099 4.32334 16.6816C4.53533 17.0533 4.84055 17.3633 5.20888 17.581C5.57722 17.7988 5.99595 17.9168 6.42379 17.9233C6.85162 17.9299 7.27377 17.8248 7.64862 17.6185C7.47342 17.1234 7.38413 16.6021 7.38462 16.0769V12.3372ZM16.6154 16.0769C16.6158 16.6021 16.5266 17.1234 16.3514 17.6185C16.7262 17.8248 17.1484 17.9299 17.5762 17.9233C18.004 17.9168 18.4228 17.7988 18.7911 17.581C19.1595 17.3633 19.4647 17.0533 19.6767 16.6816C19.8886 16.3099 20.0001 15.8894 20 15.4615V12.3846C20 12.2214 19.9352 12.0649 19.8198 11.9495C19.7044 11.8341 19.5478 11.7692 19.3846 11.7692H16.5378C16.5883 11.9502 16.6154 12.1403 16.6154 12.3372V16.0769Z" fill="#333029"/>
</svg>
