<svg width="24" height="24" viewBox="0 0 24 24" fill="none" xmlns="http://www.w3.org/2000/svg">
<rect x="4" y="4" width="16" height="16" rx="8" fill="#333029"/>
<path d="M12.1733 11.5111C11.1645 11.2489 10.84 10.9778 10.84 10.5556C10.84 10.0711 11.2889 9.73333 12.04 9.73333C12.8311 9.73333 13.1245 10.1111 13.1511 10.6667H14.1333C14.1022 9.90222 13.6356 9.2 12.7067 8.97333V8H11.3733V8.96C10.5111 9.14667 9.81779 9.70667 9.81779 10.5644C9.81779 11.5911 10.6667 12.1022 11.9067 12.4C13.0178 12.6667 13.24 13.0578 13.24 13.4711C13.24 13.7778 13.0222 14.2667 12.04 14.2667C11.1245 14.2667 10.7645 13.8578 10.7156 13.3333H9.73779C9.79113 14.3067 10.52 14.8533 11.3733 15.0356V16H12.7067V15.0444C13.5733 14.88 14.2622 14.3778 14.2622 13.4667C14.2622 12.2044 13.1822 11.7733 12.1733 11.5111Z" fill="white"/>
</svg>
