<svg width="24" height="24" viewBox="0 0 24 24" fill="none" xmlns="http://www.w3.org/2000/svg">
<path fill-rule="evenodd" clip-rule="evenodd" d="M7.69973 5.43147C8.76585 4.51214 10.1256 4.00441 11.5333 4C14.4027 4 16.7845 6.13333 17.0437 8.88427C18.7419 9.12427 20.0667 10.5461 20.0667 12.2912C20.0667 14.2069 18.4688 15.7333 16.5328 15.7333H13.6667C13.5252 15.7333 13.3896 15.6771 13.2895 15.5771C13.1895 15.4771 13.1333 15.3414 13.1333 15.2C13.1333 15.0586 13.1895 14.9229 13.2895 14.8229C13.3896 14.7229 13.5252 14.6667 13.6667 14.6667H16.5339C17.9109 14.6667 19 13.5872 19 12.2912C19 10.9941 17.912 9.91467 16.5328 9.91467H15.9995V9.38133C16.0005 7.01333 14.0165 5.06667 11.5333 5.06667C10.3812 5.07127 9.26863 5.4874 8.39627 6.24C7.5888 6.93547 7.1664 7.77387 7.1664 8.432V8.90987L6.69173 8.96213C5.2016 9.12533 4.06667 10.3488 4.06667 11.8059C4.06667 13.3707 5.37867 14.6667 7.03307 14.6667H9.4C9.54145 14.6667 9.6771 14.7229 9.77712 14.8229C9.87714 14.9229 9.93333 15.0586 9.93333 15.2C9.93333 15.3414 9.87714 15.4771 9.77712 15.5771C9.6771 15.6771 9.54145 15.7333 9.4 15.7333H7.03307C4.82187 15.7333 3 13.9904 3 11.8059C3 9.92533 4.3504 8.368 6.13813 7.97333C6.29067 7.0528 6.88267 6.13547 7.69973 5.43147V5.43147Z" fill="#333029"/>
<path fill-rule="evenodd" clip-rule="evenodd" d="M11.1557 8.42231C11.2053 8.37264 11.2641 8.33324 11.3289 8.30635C11.3937 8.27946 11.4632 8.26562 11.5333 8.26562C11.6035 8.26562 11.6729 8.27946 11.7377 8.30635C11.8025 8.33324 11.8614 8.37264 11.9109 8.42231L15.1109 11.6223C15.2111 11.7225 15.2673 11.8583 15.2673 11.9999C15.2673 12.1415 15.2111 12.2774 15.1109 12.3775C15.0108 12.4777 14.875 12.5339 14.7333 12.5339C14.5917 12.5339 14.4559 12.4777 14.3557 12.3775L12.0667 10.0874V19.4666C12.0667 19.608 12.0105 19.7437 11.9104 19.8437C11.8104 19.9437 11.6748 19.9999 11.5333 19.9999C11.3919 19.9999 11.2562 19.9437 11.1562 19.8437C11.0562 19.7437 11 19.608 11 19.4666V10.0874L8.71092 12.3775C8.61078 12.4777 8.47495 12.5339 8.33332 12.5339C8.1917 12.5339 8.05587 12.4777 7.95572 12.3775C7.85558 12.2774 7.79932 12.1415 7.79932 11.9999C7.79932 11.8583 7.85558 11.7225 7.95572 11.6223L11.1557 8.42231Z" fill="#333029"/>
</svg>
