<svg width="24" height="24" viewBox="0 0 24 24" fill="none" xmlns="http://www.w3.org/2000/svg">
<path d="M20 12.9969L19.9999 16.4969C19.9719 17.8781 18.8781 19 17.5 19C16.6728 19 16 18.3263 16 17.4981V13.5031C16 12.675 16.6719 12 17.5 12C17.8384 12 18.1534 12.0851 18.4469 12.2087C18.0531 8.97188 15.3156 6.50406 12 6.50406C8.68438 6.50406 5.94656 8.97188 5.55313 12.2094C5.84656 12.0844 6.16156 12 6.5 12C7.32812 12 8 12.675 8 13.5031V17.5C8 18.325 7.32812 19 6.5 19C5.12156 19 4.02812 17.8788 4.02812 16.4981L4 13C4 8.5875 7.5875 5 12 5C16.4031 5 19.9875 8.57812 19.9719 12.9781C19.9719 12.9844 19.9719 12.9906 20 12.9969V12.9969Z" fill="black"/>
</svg>
