<svg width="24" height="24" viewBox="0 0 24 24" fill="none" xmlns="http://www.w3.org/2000/svg">
<path d="M19.1429 8.42557L16.8571 9.68182V7.09091C16.8571 6.4892 16.3446 6 15.7143 6H5.14286C4.5125 6 4 6.4892 4 7.09091V16.9091C4 17.5108 4.5125 18 5.14286 18H15.7143C16.3446 18 16.8571 17.5108 16.8571 16.9091V14.3182L19.1429 15.5744C19.5232 15.7841 20 15.5216 20 15.104V8.89773C20 8.47841 19.5232 8.21591 19.1429 8.42557ZM15.5714 16.7727H5.28571V7.22727H15.5714V16.7727ZM18.7143 13.9261L16.8571 12.9068V11.0949L18.7143 10.0739V13.9261ZM6.57143 9.40909H8.57143C8.65 9.40909 8.71429 9.34773 8.71429 9.27273V8.45455C8.71429 8.37955 8.65 8.31818 8.57143 8.31818H6.57143C6.49286 8.31818 6.42857 8.37955 6.42857 8.45455V9.27273C6.42857 9.34773 6.49286 9.40909 6.57143 9.40909Z" fill="#333029"/>
</svg>
