<svg width="24" height="24" viewBox="0 0 24 24" fill="none" xmlns="http://www.w3.org/2000/svg">
<path d="M18.9333 4.00012H5.06667C4.78377 4.00012 4.51246 4.12979 4.31242 4.36061C4.11238 4.59142 4 4.90447 4 5.23089V18.7694C4 19.0958 4.11238 19.4088 4.31242 19.6396C4.51246 19.8705 4.78377 20.0001 5.06667 20.0001H18.9333C19.2162 20.0001 19.4875 19.8705 19.6876 19.6396C19.8876 19.4088 20 19.0958 20 18.7694V5.23089C20 4.90447 19.8876 4.59142 19.6876 4.36061C19.4875 4.12979 19.2162 4.00012 18.9333 4.00012V4.00012ZM9.33333 18.7694H5.06667V5.23089H9.33333V18.7694ZM14.6667 18.7694H10.4V5.23089H14.6667V18.7694Z" fill="#333029"/>
</svg>
