<svg width="24" height="24" viewBox="0 0 24 24" fill="none" xmlns="http://www.w3.org/2000/svg">
<path d="M12 13.05C12.663 13.05 13.2989 12.7867 13.7678 12.3178C14.2366 11.849 14.5 11.2131 14.5 10.55C14.5 9.88701 14.2366 9.25112 13.7678 8.78228C13.2989 8.31344 12.663 8.05005 12 8.05005C11.337 8.05005 10.7011 8.31344 10.2322 8.78228C9.76339 9.25112 9.5 9.88701 9.5 10.55C9.5 11.2131 9.76339 11.849 10.2322 12.3178C10.7011 12.7867 11.337 13.05 12 13.05V13.05Z" fill="#333029"/>
<path d="M6 6C5.46957 6 4.96086 6.21071 4.58579 6.58579C4.21071 6.96086 4 7.46957 4 8V16C4 16.5304 4.21071 17.0391 4.58579 17.4142C4.96086 17.7893 5.46957 18 6 18H18C18.5304 18 19.0391 17.7893 19.4142 17.4142C19.7893 17.0391 20 16.5304 20 16V8C20 7.46957 19.7893 6.96086 19.4142 6.58579C19.0391 6.21071 18.5304 6 18 6H6ZM16.798 17C16.345 15.73 15.038 14 12 14C8.963 14 7.655 15.73 7.202 17H6C5.73478 17 5.48043 16.8946 5.29289 16.7071C5.10536 16.5196 5 16.2652 5 16V8C5 7.73478 5.10536 7.48043 5.29289 7.29289C5.48043 7.10536 5.73478 7 6 7H18C18.2652 7 18.5196 7.10536 18.7071 7.29289C18.8946 7.48043 19 7.73478 19 8V16C19 16.2652 18.8946 16.5196 18.7071 16.7071C18.5196 16.8946 18.2652 17 18 17H16.798Z" fill="#333029"/>
</svg>
