<svg width="24" height="24" viewBox="0 0 24 24" fill="none" xmlns="http://www.w3.org/2000/svg">
<path fill-rule="evenodd" clip-rule="evenodd" d="M18.3773 5.61617C17.5471 4.78441 16.5592 4.12489 15.471 3.67582C14.3829 3.22675 13.2159 2.99705 12.0379 3.00003C7.09816 3.00003 3.07687 7.00124 3.07488 11.9195C3.07488 13.4914 3.48719 15.0255 4.27088 16.3788L3 21L7.75107 19.759C9.06527 20.471 10.5376 20.8443 12.0339 20.845H12.0379C16.9767 20.845 20.998 16.8438 21 11.9255C21.0034 10.7535 20.7733 9.59253 20.3232 8.50957C19.873 7.42662 19.2117 6.44321 18.3773 5.61617V5.61617ZM12.0379 19.3397H12.0349C10.7007 19.3398 9.39097 18.9826 8.24325 18.3054L7.9717 18.1444L5.15241 18.8807L5.90415 16.1453L5.72745 15.8651C4.98148 14.6831 4.58659 13.3153 4.58835 11.9195C4.59035 7.83188 7.93177 4.50632 12.0409 4.50632C13.0195 4.50416 13.9889 4.69518 14.8928 5.06835C15.7967 5.44151 16.6174 5.9894 17.3071 6.68031C18.0006 7.36792 18.5502 8.1855 18.9243 9.0858C19.2984 9.9861 19.4895 10.9513 19.4865 11.9255C19.4845 16.0131 16.1431 19.3397 12.0379 19.3397ZM16.1241 13.7865C15.8995 13.6742 14.7993 13.1357 14.5937 13.0612C14.389 12.9867 14.2402 12.9499 14.0905 13.1725C13.9407 13.395 13.5115 13.8968 13.3807 14.0458C13.2499 14.1949 13.1191 14.2128 12.8955 14.1015C12.6719 13.9902 11.9501 13.7547 11.0945 12.9956C10.4286 12.4044 9.97935 11.6751 9.84857 11.4516C9.71779 11.228 9.83459 11.1078 9.94741 10.9965C10.0482 10.8971 10.171 10.7362 10.2828 10.606C10.3947 10.4758 10.4316 10.3834 10.5065 10.2344C10.5813 10.0854 10.5444 9.9552 10.4875 9.84391C10.4316 9.73164 9.98335 8.63471 9.79666 8.18858C9.61596 7.75637 9.43127 7.814 9.2935 7.80804C9.15081 7.80223 9.00802 7.79958 8.86521 7.80009C8.75166 7.80297 8.63993 7.82917 8.53702 7.87704C8.43412 7.92491 8.34226 7.99343 8.26721 8.07829C8.06155 8.30185 7.48352 8.84038 7.48352 9.93731C7.48352 11.0342 8.28618 12.0944 8.39799 12.2434C8.50981 12.3925 9.97736 14.643 12.2236 15.6088C12.7587 15.8383 13.176 15.9754 13.5005 16.0787C14.0366 16.2486 14.5248 16.2238 14.9111 16.1672C15.3414 16.1036 16.2359 15.6286 16.4226 15.108C16.6093 14.5873 16.6093 14.1412 16.5534 14.0478C16.4975 13.9544 16.3467 13.8978 16.1241 13.7865" fill="#333029"/>
</svg>
