<svg width="24" height="24" viewBox="0 0 24 24" fill="none" xmlns="http://www.w3.org/2000/svg">
<path d="M9.48499 10.879C9.47037 10.814 9.44289 10.7526 9.40418 10.6983C9.36547 10.6441 9.31631 10.5981 9.25959 10.5632C9.20287 10.5282 9.13973 10.5049 9.07389 10.4947C9.00804 10.4845 8.94081 10.4875 8.87616 10.5036C8.81151 10.5198 8.75073 10.5487 8.6974 10.5886C8.64407 10.6286 8.59927 10.6788 8.56562 10.7363C8.53197 10.7938 8.51016 10.8575 8.50147 10.9235C8.49277 10.9896 8.49737 11.0567 8.51499 11.121L10.015 17.121C10.042 17.2281 10.1037 17.3232 10.1905 17.3915C10.2773 17.4599 10.3842 17.4975 10.4946 17.4987C10.6051 17.4998 10.7128 17.4644 10.8009 17.3979C10.8891 17.3313 10.9528 17.2375 10.982 17.131L12 13.402L13.018 17.132C13.0472 17.2385 13.1109 17.3323 13.199 17.3989C13.2872 17.4654 13.3949 17.5008 13.5053 17.4997C13.6158 17.4985 13.7227 17.4609 13.8095 17.3925C13.8963 17.3242 13.958 17.2291 13.985 17.122L15.485 11.122C15.5137 10.9946 15.4913 10.861 15.4228 10.7498C15.3543 10.6387 15.2449 10.5587 15.1182 10.5271C14.9915 10.4955 14.8574 10.5147 14.7447 10.5807C14.632 10.6466 14.5495 10.754 14.515 10.88L13.479 15.024L12.482 11.369C12.4529 11.2635 12.39 11.1705 12.3029 11.1042C12.2159 11.0379 12.1094 11.002 12 11.002C11.8906 11.002 11.7841 11.0379 11.6971 11.1042C11.61 11.1705 11.5471 11.2635 11.518 11.369L10.521 15.024L9.48499 10.88V10.879Z" fill="#333029"/>
<path d="M18 18V8.5L13.5 4H8C7.46957 4 6.96086 4.21071 6.58579 4.58579C6.21071 4.96086 6 5.46957 6 6V18C6 18.5304 6.21071 19.0391 6.58579 19.4142C6.96086 19.7893 7.46957 20 8 20H16C16.5304 20 17.0391 19.7893 17.4142 19.4142C17.7893 19.0391 18 18.5304 18 18ZM13.5 7C13.5 7.39782 13.658 7.77936 13.9393 8.06066C14.2206 8.34196 14.6022 8.5 15 8.5H17V18C17 18.2652 16.8946 18.5196 16.7071 18.7071C16.5196 18.8946 16.2652 19 16 19H8C7.73478 19 7.48043 18.8946 7.29289 18.7071C7.10536 18.5196 7 18.2652 7 18V6C7 5.73478 7.10536 5.48043 7.29289 5.29289C7.48043 5.10536 7.73478 5 8 5H13.5V7Z" fill="#333029"/>
</svg>
